# xmcd CD database file
#
# Track frame offsets:
#	150
#	12602
#	26667
#	41528
#	56314
#	70439
#	83858
#	98388
#	113074
#	127845
#	139094
#	151027
#	163513
#	178426
#	191821
#	207109
#	221035
#	236053
#	249167
#
# Disc length: 3478 seconds
#
# Revision: 0
# Processed by: cddbd v1.5PL3 Copyright (c) Steve Scherf et al.
# Submitted via: CDex 1.51
#
DISCID=010d9413
DTITLE=Louis Armstrong - The Complete Decca Studio Master Takes 1935-1939 (Selection)
DYEAR=1900
DGENRE=Jazz
TTITLE0=Jeepers Creepers
TTITLE1=What Is This Thing Called Swing
TTITLE2=Rockin' Chair
TTITLE3=Lazy Bones
TTITLE4=Hear Me Talkin' To Ya
TTITLE5=Save It, Pretty Mama
TTITLE6=West End Blues
TTITLE7=Savoy Blues
TTITLE8=Confessin' (I Love You)
TTITLE9=Our Monday Date
TTITLE10=If It's Good (Then I Want It)
TTITLE11=Me And Brother Bill
TTITLE12=Baby Won't You Please Come Home
TTITLE13=Poor Old Joe
TTITLE14=Shanty Boat On The Mississippi
TTITLE15=Poor Old Joe
TTITLE16=You're A Lucky Guy
TTITLE17=You're Just A No Account
TTITLE18=Bye And Bye
EXTD=
EXTT0=
EXTT1=
EXTT2=
EXTT3=
EXTT4=
EXTT5=
EXTT6=
EXTT7=
EXTT8=
EXTT9=
EXTT10=
EXTT11=
EXTT12=
EXTT13=
EXTT14=
EXTT15=
EXTT16=
EXTT17=
EXTT18=
PLAYORDER=
